<?xml version="1.0" standalone="no"?><!DOCTYPE svg PUBLIC "-//W3C//DTD SVG 1.1//EN" "http://www.w3.org/Graphics/SVG/1.1/DTD/svg11.dtd"><svg class="icon" width="200px" height="200.00px" viewBox="0 0 1024 1024" version="1.1" xmlns="http://www.w3.org/2000/svg"><path fill="#333333" d="M910.549623 383.042953 897.770576 368.4547c-62.323441-71.2743-171.435511-180.701548-242.47445-243.216347l-14.541181-12.81384c-71.030753-62.514799-187.253778-62.514799-258.275321 0l-14.561647 12.81384c-71.02973 62.514799-180.131567 171.942047-242.456031 243.179508l-12.788258 14.625092c-62.333674 71.237461-62.333674 187.831946 0 259.071454l12.788258 14.588253c62.315254 71.238484 171.425278 180.702572 242.456031 243.214301l14.561647 12.815887c71.030753 62.514799 187.235358 62.514799 258.266112 0l14.56881-12.815887c45.075615-39.671535 105.454774-98.240465 159.526273-153.949254L579.235822 608.883561c0 0-72.714092 106.387006-173.960007 106.387006-73.626881 0-115.564016-42.025139-115.564016-99.473549 0-57.447387 43.972491-98.494245 119.65417-98.494245 75.67247 0 150.330844 32.830733 150.330844 32.830733s25.067932-46.153156 28.634154-69.753667L364.361987 480.379838l0-36.923958 122.722042 0 0-36.921911L327.548546 406.53397l0-36.922934 159.535483 0 0-73.880661 36.821627 0 0 73.880661 159.535483 0 0 36.922934L523.906679 406.53397l0 36.921911 122.722042 0c-13.809517 59.474556-48.26219 124.450407-48.26219 124.450407l254.419504 138.27732c16.533558-17.627473 31.836079-34.425044 44.985564-49.481971l12.788258-14.588253C972.892507 570.873876 972.883297 454.280414 910.549623 383.042953zM326.526263 615.797018c0 22.551622 14.325263 60.524468 77.727269 60.524468 69.545936 0 134.992507-88.214111 134.992507-88.214111s-62.378699-33.882692-136.015813-33.882692C341.865623 554.22366 326.526263 593.20958 326.526263 615.797018z" /></svg>