<?xml version="1.0" standalone="no"?><!DOCTYPE svg PUBLIC "-//W3C//DTD SVG 1.1//EN" "http://www.w3.org/Graphics/SVG/1.1/DTD/svg11.dtd"><svg class="icon" width="200px" height="200.00px" viewBox="0 0 1024 1024" version="1.1" xmlns="http://www.w3.org/2000/svg"><path fill="#333333" d="M888.80846 291.753807c-0.437975 0.434905-0.915859 0.793062-1.359974 1.218758l0.063445 0.063445L723.388966 438.83156l47.583738 183.622064 15.797801 60.975746 53.867862 207.838605-0.11154 0.063445c2.869351 9.28855 0.725524 19.774369-6.659677 27.119661-10.650571 10.595312-27.90556 10.595312-38.548968 0-0.50142-0.494257-0.851391-1.068332-1.305739-1.577938-0.517793-0.446162-1.090844-0.812505-1.584078-1.306762-0.477884-0.460488-0.820692-1.019213-1.25969-1.51347l-0.191358 0.079818L544.650119 597.614913 406.896732 719.994148l-0.3776-0.049119-32.184003 145.177474-0.059352 0.017396c-0.319272 6.483668-2.876514 12.872169-7.854898 17.844413-10.651594 10.579963-27.90556 10.579963-38.553061 0-3.197832-3.185552-5.318122-6.993275-6.593162-11.010775l-0.055259 0.017396-49.312102-120.497375L149.574109 702.165084c-0.405229-0.144286-0.804319-0.301875-1.202385-0.477884l-0.433882-0.177032 0.007163-0.047072c-2.895957-1.305739-5.63944-3.075035-8.021697-5.433756-10.646478-10.595312-10.646478-27.770484 0-38.349423 4.983501-4.955872 11.416004-7.503904 17.936511-7.824199l0.011256-0.063445 146.222269-32.072463 123.166157-137.179312L111.009791 237.754962l0.115634-0.258896c-0.682545-0.557702-1.407046-1.027399-2.044566-1.661849-10.646478-10.591219-10.646478-27.758204 0-38.349423 6.404873-6.369058 15.192004-8.831132 23.500227-7.53972l0.004093-0.004093 0.039909 0.008186c1.330298 0.210801 2.628874 0.565888 3.923356 0.972141l200.997803 49.665143 61.761646 15.262612 187.969069 46.447868 146.028864-162.655544 0.064468 0.068562c0.430812-0.443092 0.795109-0.912789 1.225921-1.350764 44.156686-44.598754 127.047558-57.695027 169.628352-15.335267C946.812525 165.384701 933.144224 247.155053 888.80846 291.753807zM812.212968 145.923464c-33.161261 0-60.853973 23.305799-67.687612 54.42147l94.574982 78.842673c24.941042-10.499122 42.450834-35.166941 42.450834-63.925938C881.552196 176.967504 850.508155 145.923464 812.212968 145.923464z" /></svg>