<svg class="icon" width="200" height="200" viewBox="0 0 1024 1024" xmlns="http://www.w3.org/2000/svg"><path fill="#333" d="M384 64H134.4c-51.2 0-89.6 41.6-89.6 89.6v227.2c0 51.2 41.6 89.6 89.6 89.6H384c51.2 0 89.6-41.6 89.6-89.6V153.6c0-48-38.4-89.6-89.6-89.6zm44.8 316.8c0 25.6-19.2 44.8-44.8 44.8H134.4c-25.6 0-44.8-19.2-44.8-44.8V153.6c0-25.6 19.2-44.8 44.8-44.8H384c25.6 0 44.8 19.2 44.8 44.8v227.2zM192 192h134.4v134.4H192V192zm185.6 352H134.4c-48 0-86.4 38.4-86.4 89.6v220.8c0 48 38.4 89.6 86.4 89.6h243.2c48 0 86.4-38.4 86.4-89.6V633.6c3.2-51.2-38.4-89.6-86.4-89.6zm44.8 307.2c0 25.6-19.2 44.8-44.8 44.8H134.4c-25.6 0-44.8-19.2-44.8-44.8V630.4c0-25.6 19.2-44.8 44.8-44.8h243.2c25.6 0 44.8 19.2 44.8 44.8v220.8zM192 668.8h131.2V800H192V668.8zm441.6-198.4h249.6c51.2 0 89.6-41.6 89.6-89.6V153.6c0-51.2-41.6-89.6-89.6-89.6H633.6c-51.2 0-89.6 41.6-89.6 89.6v227.2c0 51.2 41.6 89.6 89.6 89.6zm-44.8-316.8c0-25.6 19.2-44.8 44.8-44.8h249.6c25.6 0 44.8 19.2 44.8 44.8v227.2c0 25.6-19.2 44.8-44.8 44.8H633.6c-25.6 0-44.8-19.2-44.8-44.8V153.6zm112 38.4h134.4v134.4H700.8V192zm-128 524.8h137.6c12.8 0 22.4-9.6 22.4-22.4V556.8c0-12.8-9.6-22.4-22.4-22.4H572.8c-12.8 0-22.4 9.6-22.4 22.4v137.6c0 12.8 9.6 22.4 22.4 22.4zm313.6-153.6v38.4c0 12.8 12.8 25.6 25.6 25.6h38.4c12.8 0 25.6-12.8 25.6-25.6v-38.4c0-12.8-12.8-25.6-25.6-25.6H912c-12.8 0-25.6 9.6-25.6 25.6zM582.4 944h48c12.8 0 22.4-9.6 22.4-22.4v-48c0-12.8-9.6-22.4-22.4-22.4h-48c-12.8 0-22.4 9.6-22.4 22.4v48c0 12.8 9.6 22.4 22.4 22.4zM944 704h-99.2c-16 0-28.8 12.8-28.8 28.8v44.8h-48c-19.2 0-32 12.8-32 32v99.2c0 16 12.8 28.8 28.8 28.8l179.2 3.2c16 0 28.8-12.8 28.8-28.8V732.8c0-16-12.8-28.8-28.8-28.8z"/></svg>