<svg class="icon" width="200" height="200" viewBox="0 0 1024 1024" xmlns="http://www.w3.org/2000/svg"><path fill="#333" d="M917.135 265.794c-13.285-6.64-21.278-21.262-19.927-37.205 3.242-38.303-9.274-43.937-17.256-54.564-7.96-10.625-48.534-11.87-61.816-15.86-13.298-3.985-22.207-52.12-37.866-63.778-16.27-12.114-58.465-2.656-78.39 41.195-19.939 43.847 0 154.133 0 154.133-2.34 16.94-30.568 7.974-30.568 7.974-59.791-15.945-107.299-7.974-107.299-7.974-92.13 13.215-154.73 49.283-197.163 94.7-80.745 74.99-99.149 174.148-99.749 209.497-1.047 61.9 20.927 104.642 11.622 116.598-1.335 9.306-42.06-5.404-103.643-7.97-74.57-3.108-116.927 34.545-115.61 49.165 1.322 14.624 30.572 23.918 43.85 30.566 13.285 6.636 21.28 21.256 19.933 37.196-3.242 38.306 9.275 43.936 17.251 54.564 7.965 10.627 48.532 11.871 61.822 15.868 13.29 3.985 22.205 52.115 37.86 63.777 16.27 12.115 58.464 2.657 78.397-41.194 19.932-43.85 0-154.136 0-154.136 2.333-16.94 30.566-7.97 30.566-7.97 59.793 15.94 107.299 7.97 107.299 7.97 92.15-13.217 154.771-49.304 197.207-94.74 80.705-74.984 99.098-174.11 99.706-209.455 1.048-61.907-20.926-104.641-11.628-116.6 1.342-9.306 42.062 5.404 103.645 7.97 74.573 3.105 116.926-34.546 115.61-49.164-1.318-14.626-30.567-23.919-43.853-30.563z"/></svg>