<svg class="icon" width="200" height="200" viewBox="0 0 1024 1024" xmlns="http://www.w3.org/2000/svg"><path fill="#333" d="M883.2 60.8h-89.6c-12.8 0-25.6 9.6-25.6 25.6s9.6 25.6 25.6 25.6h89.6c25.6 0 48 22.4 48 48v713.6c0 25.6-22.4 48-48 48h-736c-25.6 0-48-22.4-48-48V160c0-25.6 22.4-48 48-48h99.2c12.8 0 25.6-9.6 25.6-25.6s-9.6-25.6-25.6-25.6h-99.2c-54.4 0-96 41.6-96 96v713.6c0 54.4 41.6 96 96 96h736c54.4 0 96-41.6 96-96V156.8c0-54.4-44.8-96-96-96zm-489.6 48h240c12.8 0 25.6-9.6 25.6-25.6s-9.6-25.6-25.6-25.6h-240c-12.8 0-25.6 9.6-25.6 25.6s12.8 25.6 25.6 25.6zm-99.2 236.8h464c12.8 0 25.6-9.6 25.6-25.6s-9.6-25.6-25.6-25.6h-464c-12.8 0-25.6 9.6-25.6 25.6s9.6 25.6 25.6 25.6zm0 195.2h464c12.8 0 25.6-9.6 25.6-25.6s-9.6-25.6-25.6-25.6h-464c-12.8 0-25.6 9.6-25.6 25.6s9.6 25.6 25.6 25.6zm0 195.2h464c12.8 0 25.6-9.6 25.6-25.6s-9.6-25.6-25.6-25.6h-464c-12.8 0-25.6 9.6-25.6 25.6s9.6 25.6 25.6 25.6z"/></svg>