<svg class="icon" width="200" height="200" viewBox="0 0 1024 1024" xmlns="http://www.w3.org/2000/svg"><path fill="#333" d="M910.55 383.043l-12.78-14.588c-62.323-71.275-171.435-180.702-242.474-243.217l-14.541-12.813c-71.03-62.515-187.254-62.515-258.275 0l-14.562 12.813c-71.03 62.515-180.132 171.942-242.456 243.18l-12.788 14.625c-62.334 71.237-62.334 187.832 0 259.071l12.788 14.589c62.315 71.238 171.425 180.702 242.456 243.214l14.562 12.816c71.03 62.515 187.235 62.515 258.266 0l14.569-12.816c45.075-39.672 105.454-98.24 159.526-153.95L579.236 608.885S506.522 715.27 405.276 715.27c-73.627 0-115.564-42.026-115.564-99.474 0-57.447 43.972-98.494 119.654-98.494 75.672 0 150.33 32.83 150.33 32.83s25.069-46.153 28.635-69.753H364.362v-36.924h122.722v-36.922H327.549V369.61h159.535v-73.88h36.822v73.88H683.44v36.923H523.907v36.922h122.722c-13.81 59.474-48.262 124.45-48.262 124.45l254.419 138.278c16.534-17.628 31.836-34.425 44.986-49.482l12.788-14.589c62.333-71.24 62.323-187.833-.01-259.07zM326.526 615.797c0 22.552 14.326 60.524 77.728 60.524 69.545 0 134.992-88.214 134.992-88.214s-62.379-33.882-136.016-33.882c-61.364-.001-76.704 38.985-76.704 61.572z"/></svg>