<svg class="icon" width="200" height="200" viewBox="0 0 1024 1024" xmlns="http://www.w3.org/2000/svg"><path fill="#333" d="M888.808 291.754c-.438.435-.915.793-1.36 1.219l.064.063-164.123 145.796 47.584 183.622 15.798 60.975 53.867 207.839-.111.063c2.87 9.289.725 19.775-6.66 27.12-10.65 10.595-27.905 10.595-38.549 0-.501-.494-.851-1.068-1.306-1.578-.517-.446-1.09-.812-1.584-1.307-.478-.46-.82-1.019-1.26-1.513l-.19.08L544.65 597.615l-137.753 122.38-.378-.05-32.184 145.178-.06.017c-.318 6.484-2.876 12.872-7.854 17.844-10.652 10.58-27.906 10.58-38.553 0-3.198-3.185-5.318-6.993-6.593-11.01l-.056.017-49.312-120.497-122.333-49.329a17.376 17.376 0 0 1-1.202-.478l-.434-.177.007-.047c-2.896-1.306-5.64-3.075-8.022-5.434-10.646-10.595-10.646-27.77 0-38.35 4.984-4.955 11.416-7.503 17.937-7.823l.011-.064 146.222-32.072L427.26 480.54 111.01 237.755l.115-.259c-.682-.558-1.407-1.027-2.044-1.662-10.647-10.591-10.647-27.758 0-38.35 6.405-6.368 15.192-8.83 23.5-7.539l.004-.004.04.008c1.33.211 2.629.566 3.923.972l200.998 49.665 61.762 15.263 187.969 46.448L733.306 139.64l.064.069c.431-.443.795-.913 1.226-1.35 44.157-44.6 127.048-57.696 169.629-15.336 42.588 42.36 28.92 124.131-15.417 168.73zm-76.595-145.83c-33.161 0-60.854 23.305-67.688 54.42l94.575 78.844c24.941-10.5 42.451-35.167 42.451-63.926.001-38.294-31.043-69.339-69.338-69.339z"/></svg>